# xmcd
#
# Track frame offsets:
# 150
# 14249
# 33457
# 49022
# 62387
# 76824
# 92619
# 115958
# 131713
# 146629
# 166597
# 177993
# 191198
# 202842
# 231305
#
# Disc length: 3294 seconds
#
# Revision: 0
# Processed by: cddbd v1.5.1PL0 Copyright (c) Steve Scherf et al.
# Submitted via: Audion 3.0.2 (http://www.panic.com/audion/)
#
DISCID=ca0cdc0f
DTITLE=Wayne Hancock - Wild, Free and Reckless
DYEAR=1900
DGENRE=
TTITLE0=Kansas City Blues
TTITLE1=Lookin' For Better Days
TTITLE2=Flat Land Boogie
TTITLE3=Smell That Bread
TTITLE4=Blue Suede Shoes
TTITLE5=Tonight The Rain Is Coming Down
TTITLE6=Drive On
TTITLE7=Going Back To Texas
TTITLE8=Wild, Free and Reckless
TTITLE9=That's Why I Ride
TTITLE10=It's Saturday Night
TTITLE11=Gone Gone Gone
TTITLE12=Gonna Be Some Trouble Tonight
TTITLE13=Mornin' Noon and Night
TTITLE14=You Don't Have To Cry
EXTD=
EXTT0=
EXTT1=
EXTT2=
EXTT3=
EXTT4=
EXTT5=
EXTT6=
EXTT7=
EXTT8=
EXTT9=
EXTT10=
EXTT11=
EXTT12=
EXTT13=
EXTT14=
PLAYORDER=
